<svg xmlns="http://www.w3.org/2000/svg" width="480" height="300" viewBox="0 0 480 300"><g fill="none" stroke="rgba(255,255,255,0.55)" stroke-linejoin="round" stroke-linecap="round"><path d="M483.0,224.6L482.7,225.0L481.1,228.0L481.5,231.0L483.0,232.3" stroke-width="1.00"/><path d="M483.0,249.0L480.0,250.6L478.5,252.0L477.0,253.8L475.9,255.0L474.0,257.1L472.6,258.0L471.0,258.7L468.0,260.3L466.9,261.0L465.0,261.9L462.0,263.5L461.3,264.0L459.0,265.1L456.0,266.7L455.5,267.0L453.0,268.2L450.0,269.7L449.3,270.0L447.0,270.9L444.0,271.1L441.2,270.0L441.0,269.9L438.8,267.0L438.0,265.9L436.7,264.0L435.0,262.1L433.6,261.0L432.0,259.9L429.0,258.8L426.0,258.8L423.0,260.1L421.4,261.0L420.0,261.7L417.0,263.1L414.6,264.0L414.0,264.2L411.0,264.9L408.0,265.3L405.0,265.4L402.0,265.1L399.0,264.7L396.2,264.0L396.0,263.9L393.0,262.3L391.0,261.0L390.0,259.0L389.5,258.0L389.5,255.0L390.0,252.0L390.0,251.8L390.3,249.0L390.8,246.0L391.3,243.0L391.7,240.0L392.2,237.0L393.0,234.2L393.0,234.0L394.5,231.0L396.0,229.5L398.0,228.0L399.0,227.5L402.0,226.2L405.0,225.0L405.0,225.0L408.0,223.8L411.0,222.7L412.8,222.0L414.0,221.5L417.0,220.4L420.0,219.5L422.2,219.0L423.0,218.7L426.0,218.1L429.0,217.5L432.0,217.1L435.0,216.9L438.0,217.0L441.0,217.8L442.7,219.0L444.0,219.6L447.0,221.1L449.5,222.0L450.0,222.2L453.0,222.8L456.0,222.8L459.0,222.3L459.8,222.0L462.0,221.5L465.0,220.6L468.0,219.4L468.9,219.0L471.0,218.7L474.0,218.5L477.0,218.5L480.0,218.7L483.0,219.0" stroke-width="1.00"/><path d="M312.0,113.3L313.6,114.0L315.0,114.5L318.0,115.8L320.0,117.0L321.0,118.0L322.7,120.0L324.0,123.0L324.0,123.0L325.0,126.0L326.2,129.0L327.0,130.6L327.9,132.0L330.0,134.8L330.1,135.0L332.8,138.0L333.0,138.2L335.3,141.0L336.0,141.8L337.7,144.0L339.0,145.7L339.9,147.0L342.0,149.8L342.2,150.0L344.3,153.0L345.0,154.0L346.4,156.0L348.0,158.1L348.8,159.0L351.0,161.5L351.5,162.0L354.0,164.2L355.1,165.0L357.0,166.2L360.0,167.7L360.8,168.0L363.0,168.8L366.0,169.6L369.0,170.3L372.0,171.0L372.1,171.0L375.0,171.4L378.0,171.4L381.0,171.0L381.3,171.0L384.0,170.6L387.0,170.2L390.0,169.9L393.0,169.8L396.0,169.8L399.0,169.8L402.0,169.8L405.0,169.7L408.0,169.6L411.0,169.4L414.0,169.3L417.0,169.3L420.0,169.4L423.0,169.5L426.0,169.4L429.0,168.7L430.1,168.0L430.7,165.0L430.1,162.0L429.5,159.0L429.0,157.6L428.5,156.0L426.8,153.0L426.0,151.8L424.9,150.0L423.1,147.0L423.0,146.9L421.4,144.0L420.0,141.2L419.9,141.0L418.6,138.0L418.0,135.0L418.2,132.0L419.3,129.0L420.0,127.3L420.7,126.0L420.0,123.6L419.9,123.0L417.0,120.3L416.8,120.0L414.0,118.0L412.9,117.0L411.0,115.7L408.7,114.0L408.0,113.5L405.0,111.5L404.3,111.0L402.0,109.5L399.6,108.0L399.0,107.7L396.0,106.0L393.9,105.0L393.0,104.6L390.0,103.4L387.0,102.5L385.4,102.0L384.0,101.6L381.0,100.7L378.0,99.7L376.1,99.0L375.0,98.6L372.0,97.3L369.2,96.0L369.0,95.9L366.0,94.6L363.0,93.5L360.8,93.0L360.0,92.8L357.0,92.5L354.0,92.8L352.8,93.0L351.0,93.4L348.0,93.9L345.0,94.4L342.0,95.1L339.1,96.0L339.0,96.0L336.0,97.4L333.0,98.9L332.8,99.0L330.0,100.3L327.0,101.4L324.7,102.0L324.0,102.2L321.0,103.0L318.0,103.7L315.0,104.4L313.2,105.0L312.0,105.6L309.0,107.3L308.0,108.0L308.1,111.0L309.0,111.7Z" stroke-width="1.00"/><path d="M261.0,176.2L262.3,177.0L264.0,177.7L267.0,179.0L268.9,180.0L270.0,180.8L272.4,183.0L273.0,185.9L273.0,186.0L273.0,186.1L272.8,189.0L272.5,192.0L273.0,195.0L273.0,195.0L275.4,198.0L276.0,198.4L279.0,199.9L282.0,200.9L282.4,201.0L285.0,201.4L288.0,201.1L288.2,201.0L291.0,199.5L292.3,198.0L294.0,196.4L295.4,195.0L297.0,193.7L299.9,192.0L300.0,191.9L303.0,190.6L306.0,189.9L309.0,189.3L310.2,189.0L312.0,188.2L315.0,186.7L316.2,186.0L315.0,184.8L313.9,183.0L312.0,181.7L310.2,180.0L309.0,179.1L306.2,177.0L306.0,176.9L303.0,174.9L301.3,174.0L300.0,173.1L297.0,171.6L294.0,171.4L291.1,174.0L291.0,174.1L288.6,177.0L288.0,177.7L285.0,179.9L282.0,180.0L282.0,180.0L282.0,180.0L279.0,178.6L277.3,177.0L276.0,176.0L274.2,174.0L273.0,173.1L270.3,171.0L270.0,170.8L267.0,169.6L264.0,169.1L261.0,169.9L259.6,171.0L258.9,174.0Z" stroke-width="1.00"/><path d="M346.9,303.0L345.0,300.6L344.5,300.0L344.3,297.0L345.0,294.3L345.1,294.0L346.8,291.0L348.0,289.3L349.2,288.0L351.0,286.6L353.8,285.0L354.0,284.9L357.0,283.5L359.6,282.0L360.0,281.7L363.0,279.6L364.0,279.0L366.0,277.0L367.3,276.0L366.6,273.0L366.0,272.8L363.0,272.1L360.0,271.4L357.0,270.8L354.0,270.1L353.8,270.0L351.0,269.4L348.0,268.5L345.0,267.2L344.6,267.0L342.0,264.5L341.6,264.0L339.7,261.0L339.0,260.0L337.5,258.0L336.0,256.3L334.7,255.0L333.0,253.2L331.6,252.0L330.0,250.4L328.3,249.0L327.0,247.5L325.3,246.0L324.0,243.7L323.4,243.0L324.0,242.2L327.0,240.8L330.0,240.4L333.0,240.1L333.7,240.0L336.0,239.5L339.0,237.5L339.3,237.0L339.0,236.4L338.0,234.0L336.0,231.7L335.4,231.0L333.0,229.0L331.9,228.0L330.0,226.7L327.5,225.0L327.0,224.7L324.0,223.1L322.0,222.0L321.0,221.6L318.0,220.3L315.0,219.3L313.4,219.0L312.0,218.7L309.0,218.5L306.0,218.5L303.0,218.9L302.4,219.0L300.0,219.5L297.0,220.1L294.0,220.3L291.0,219.8L288.9,219.0L288.0,218.6L285.0,216.6L284.2,216.0L282.0,214.6L279.4,213.0L279.0,212.8L276.0,211.4L273.0,210.4L271.4,210.0L270.0,209.6L267.0,208.7L264.0,207.9L261.0,207.0L260.9,207.0L258.0,205.8L255.0,204.4L254.2,204.0L252.0,202.2L250.1,201.0L249.0,199.8L246.6,198.0L246.0,197.5L243.0,195.9L240.0,195.2L239.5,195.0L237.0,194.1L235.6,192.0L234.0,190.3L232.7,189.0L231.0,187.8L228.0,186.3L227.1,186.0L225.0,184.6L224.0,183.0L222.2,180.0L222.0,179.8L219.0,178.5L216.0,178.5L213.0,179.2L211.1,180.0L210.0,180.7L207.1,183.0L207.0,183.2L206.8,183.0L206.2,180.0L206.5,177.0L207.0,174.7L207.2,174.0L208.4,171.0L210.0,168.6L210.5,168.0L213.0,166.1L215.5,165.0L216.0,164.9L219.0,164.4L222.0,164.5L224.2,165.0L225.0,165.5L228.0,167.6L231.0,166.8L234.0,166.3L237.0,166.8L240.0,167.0L243.0,166.6L246.0,165.5L246.7,165.0L249.0,163.9L252.0,162.1L252.1,162.0L255.0,160.4L257.3,159.0L258.0,158.6L261.0,156.6L261.9,156.0L264.0,154.4L265.7,153.0L267.0,151.9L269.4,150.0L270.0,149.5L272.7,147.0L273.0,146.6L275.0,144.0L276.0,142.1L276.6,141.0L277.7,138.0L278.6,135.0L279.0,133.6L279.6,132.0L280.8,129.0L282.0,126.6L282.4,126.0L285.0,123.1L285.1,123.0L288.0,121.1L290.0,120.0L291.0,119.5L294.0,117.8L295.1,117.0L296.5,114.0L297.0,111.7L297.1,111.0L298.4,108.0L300.0,106.8L302.5,105.0L303.0,104.8L306.0,103.6L309.0,102.4L309.9,102.0L312.0,101.2L315.0,100.1L318.0,99.3L318.9,99.0L321.0,98.3L324.0,97.2L326.9,96.0L327.0,95.9L330.0,94.4L332.7,93.0L333.0,92.8L336.0,91.0L338.2,90.0L339.0,89.5L342.0,88.5L345.0,87.8L348.0,87.2L349.0,87.0L351.0,86.5L354.0,85.3L356.3,84.0L357.0,83.4L360.0,81.4L361.5,81.0L363.0,80.7L364.1,81.0L366.0,81.5L369.0,83.1L370.7,84.0L372.0,85.1L374.7,87.0L375.0,87.3L378.0,89.3L379.3,90.0L381.0,90.9L384.0,92.3L385.6,93.0L387.0,93.6L390.0,94.9L392.2,96.0L393.0,96.4L396.0,98.1L397.5,99.0L399.0,99.9L402.0,101.9L402.1,102.0L405.0,103.8L406.6,105.0L408.0,105.8L411.0,107.7L411.5,108.0L414.0,109.4L417.0,110.9L417.2,111.0L420.0,112.1L423.0,113.3L424.5,114.0L426.0,114.8L428.7,117.0L429.0,117.4L430.9,120.0L432.0,121.7L432.7,123.0L434.6,126.0L435.0,126.6L436.9,129.0L438.0,130.3L439.9,132.0L441.0,132.9L444.0,134.5L445.2,135.0L447.0,135.7L450.0,136.4L453.0,136.8L456.0,136.2L457.0,135.0L457.6,132.0L459.0,129.4L460.1,129.0L462.0,128.8L462.4,129.0L465.0,130.6L466.7,132.0L467.6,135.0L465.1,138.0L465.0,138.1L462.0,139.4L460.5,141.0L460.5,144.0L460.7,147.0L459.7,150.0L459.0,150.9L456.6,153.0L456.0,153.4L453.0,154.5L450.0,155.7L449.5,156.0L448.5,159.0L450.0,161.7L450.2,162.0L453.0,163.6L456.0,164.7L457.0,165.0L459.0,165.5L462.0,166.9L463.3,168.0L465.0,169.8L465.7,171.0L466.5,174.0L465.8,177.0L465.0,177.8L462.0,179.0L459.0,179.7L457.8,180.0L456.0,180.5L453.0,181.5L450.0,182.8L449.6,183.0L447.0,184.6L444.0,185.5L441.0,185.2L438.0,184.3L435.0,183.2L434.4,183.0L432.0,182.3L429.0,181.4L426.0,180.7L423.0,180.1L422.5,180.0L420.0,179.6L417.0,179.5L414.0,179.6L411.0,179.7L408.0,179.8L405.0,179.9L402.3,180.0L402.0,180.0L399.0,180.2L396.0,180.6L393.0,181.2L390.0,182.4L388.9,183.0L387.0,184.5L385.2,186.0L384.0,187.7L382.9,189.0L381.0,192.0L381.0,192.1L378.0,192.9L376.6,192.0L375.0,191.0L372.0,189.0L372.0,189.0L369.0,187.6L366.0,186.7L363.0,186.0L362.9,186.0L360.0,185.6L357.0,185.3L354.0,185.4L351.3,186.0L351.0,186.1L348.6,189.0L348.0,190.6L347.7,192.0L347.0,195.0L345.8,198.0L345.0,199.4L343.4,201.0L342.0,202.2L339.0,203.5L336.8,204.0L338.1,207.0L339.0,207.4L342.0,208.9L344.0,210.0L345.0,210.4L348.0,211.7L350.9,213.0L351.0,213.0L354.0,214.2L357.0,215.4L358.6,216.0L360.0,216.5L363.0,216.7L366.0,216.1L366.2,216.0L369.0,214.8L372.0,213.2L372.3,213.0L375.0,211.2L377.0,210.0L378.0,209.2L381.0,207.5L384.0,207.6L387.0,208.6L390.0,210.0L390.0,210.0L393.0,211.4L396.0,213.0L396.1,213.0L399.0,214.5L402.0,214.2L403.7,213.0L405.0,212.5L408.0,211.0L410.2,210.0L411.0,209.7L414.0,208.9L417.0,208.1L420.0,207.6L423.0,207.1L423.4,207.0L426.0,206.6L429.0,206.0L432.0,205.5L435.0,204.9L438.0,204.5L441.0,204.0L441.2,204.0L444.0,203.6L447.0,203.4L450.0,203.4L453.0,203.6L454.7,204.0L456.0,204.3L459.0,205.8L460.6,207.0L462.0,208.8L463.1,210.0L465.0,211.1L468.0,211.9L471.0,212.2L474.0,211.9L477.0,210.9L478.3,210.0L479.4,207.0L479.6,204.0L480.0,201.1L480.0,201.0L481.4,198.0L483.0,196.7" stroke-width="1.00"/><path d="M483.0,264.4L481.1,267.0L480.0,268.3L478.5,270.0L477.0,271.5L475.0,273.0L474.0,273.7L471.0,275.1L468.0,276.0L467.8,276.0L465.0,276.5L462.0,277.2L459.0,278.3L457.4,279.0L456.0,279.6L453.0,281.3L451.7,282.0L450.0,283.0L447.0,284.8L446.7,285.0L444.0,286.3L441.0,287.5L439.8,288.0L438.0,288.6L435.0,289.7L432.0,290.9L431.9,291.0L429.0,292.6L426.9,294.0L426.0,294.9L424.0,297.0L423.4,300.0L424.7,303.0" stroke-width="1.00"/><path d="M85.2,0.0L85.2,3.0L85.1,6.0L85.1,9.0L85.1,12.0L85.1,15.0L85.1,18.0L85.2,21.0L85.2,24.0L84.9,27.0L84.1,30.0L84.0,30.2L81.0,32.2L79.6,30.0L78.7,27.0L78.2,24.0L78.0,22.0L78.0,21.0L77.9,18.0L77.9,15.0L78.0,12.0L78.0,10.2L78.0,9.0L78.1,6.0L78.1,3.0L78.1,0.0" stroke-width="1.00"/><path d="M192.0,212.0L194.9,213.0L195.0,213.1L196.9,216.0L197.6,219.0L198.0,219.4L198.9,219.0L200.5,216.0L200.3,213.0L200.1,210.0L200.3,207.0L200.7,204.0L201.0,202.7L201.5,201.0L202.2,198.0L202.8,195.0L203.1,192.0L201.0,190.8L198.0,191.4L196.1,192.0L195.0,192.3L192.0,193.5L190.5,195.0L189.0,196.3L187.5,198.0L186.0,199.8L184.9,201.0L183.3,204.0L183.0,205.4L182.6,207.0L181.8,210.0L180.0,212.8L179.9,213.0L178.6,216.0L177.0,218.0L176.7,219.0L175.4,222.0L174.0,223.8L173.1,225.0L171.0,227.3L169.7,228.0L168.0,229.1L165.0,228.9L162.0,229.4L159.2,231.0L159.0,231.3L157.4,234.0L157.3,237.0L159.0,239.1L159.5,240.0L162.0,242.8L162.3,243.0L165.0,245.0L168.0,243.9L168.7,243.0L171.0,241.1L173.9,240.0L174.0,240.0L177.0,239.3L180.0,237.0L180.0,237.0L180.6,234.0L180.7,231.0L180.8,228.0L180.9,225.0L181.0,222.0L181.2,219.0L181.8,216.0L183.0,214.1L184.1,213.0L186.0,212.3L189.0,211.9Z" stroke-width="1.00"/><path d="M183.0,263.8L183.1,264.0L186.0,266.7L186.7,267.0L189.0,267.8L192.0,268.0L195.0,267.8L198.0,267.1L198.2,267.0L201.0,264.6L201.3,264.0L201.2,261.0L201.0,260.7L198.0,258.4L197.7,258.0L195.0,255.4L194.7,255.0L193.0,252.0L192.0,249.3L191.9,249.0L190.7,246.0L189.0,244.2L186.0,244.0L184.3,246.0L184.0,249.0L183.9,252.0L183.4,255.0L183.0,256.5L182.6,258.0L182.1,261.0Z" stroke-width="1.00"/><path d="M152.3,240.0L153.0,238.6L154.5,237.0L153.2,234.0L153.0,233.9L150.0,232.9L147.0,233.7L146.5,234.0L144.1,237.0L144.0,238.4L143.9,240.0L144.0,240.1L147.0,242.1L150.0,241.5Z" stroke-width="1.00"/><path d="M483.0,137.7L482.7,138.0L480.0,140.2L479.3,141.0L477.2,144.0L477.0,144.9L476.5,147.0L476.7,150.0L476.9,153.0L476.8,156.0L476.7,159.0L477.0,161.3L477.2,162.0L477.0,162.3L476.4,165.0L475.6,168.0L475.3,171.0L475.7,174.0L477.0,176.1L477.9,177.0L480.0,178.3L482.4,180.0L483.0,180.4" stroke-width="1.00"/><path d="M439.2,303.0L441.0,300.3L441.2,300.0L443.6,297.0L444.0,296.7L447.0,295.0L449.1,294.0L450.0,293.6L453.0,292.5L456.0,291.6L459.0,291.0L459.4,291.0L462.0,291.0L462.2,291.0L465.0,291.6L468.0,293.0L469.3,294.0L471.0,295.9L471.6,297.0L472.1,300.0L471.7,303.0" stroke-width="1.00"/><path d="M483.0,130.7L480.6,129.0L480.0,128.7L477.0,127.2L475.2,126.0L474.0,125.3L471.0,123.4L470.5,123.0L468.0,121.2L466.4,120.0L465.0,118.9L462.6,117.0L462.0,116.4L459.3,114.0L459.0,113.7L456.5,111.0L456.0,110.4L454.1,108.0L453.0,106.6L451.7,105.0L450.0,102.9L449.0,102.0L447.0,100.1L444.7,99.0L444.0,98.6L441.0,98.0L438.0,97.6L435.0,97.0L432.0,96.0L431.9,96.0L429.0,94.7L426.0,93.4L425.1,93.0L423.0,91.9L420.0,91.0L417.0,90.6L414.0,91.0L411.0,91.4L408.0,91.1L405.0,90.3L404.3,90.0L402.0,89.2L399.0,88.0L396.9,87.0L396.0,86.6L393.0,85.2L390.5,84.0L390.0,83.8L387.0,82.3L384.6,81.0L384.0,80.7L381.0,79.1L378.9,78.0L378.0,77.5L375.0,75.9L373.3,75.0L372.0,74.4L369.0,73.0L366.7,72.0L366.0,71.8L363.0,71.0L360.0,70.6L357.0,70.5L354.0,70.7L351.0,71.2L348.1,72.0L348.0,72.0L345.0,73.7L342.7,75.0L342.0,75.7L339.4,78.0L339.0,78.5L336.6,81.0L336.0,81.6L334.2,84.0L333.0,85.3L331.4,87.0L330.0,88.0L327.0,89.9L326.8,90.0L324.0,91.4L321.0,92.9L320.8,93.0L318.0,94.1L315.0,95.4L314.0,96.0L312.0,96.9L309.0,98.5L308.2,99.0L306.0,99.9L303.0,101.1L300.6,102.0L300.0,102.2L297.0,103.2L294.0,104.3L292.4,105.0L291.0,106.1L288.8,108.0L288.0,109.1L286.6,111.0L285.0,113.2L284.6,114.0L282.0,117.0L282.0,117.0L279.3,120.0L279.0,120.3L276.8,123.0L276.0,124.2L275.0,126.0L273.7,129.0L273.0,130.9L272.6,132.0L271.7,135.0L270.6,138.0L270.0,139.2L269.1,141.0L267.0,143.8L266.8,144.0L264.0,146.8L263.8,147.0L261.0,149.4L260.2,150.0L258.0,151.6L255.8,153.0L255.0,153.5L252.0,155.0L249.0,155.9L248.0,156.0L246.0,156.2L245.2,156.0L243.0,155.5L240.0,154.2L237.5,153.0L237.0,152.8L234.0,152.5L231.7,153.0L231.0,153.2L228.0,154.4L225.0,155.8L224.5,156.0L222.0,157.0L219.0,157.6L216.0,157.7L213.0,157.9L210.0,158.6L209.4,159.0L207.0,160.6L205.6,162.0L204.0,163.9L203.2,165.0L201.5,168.0L201.0,169.1L200.1,171.0L198.8,174.0L198.0,175.7L197.0,177.0L195.0,179.3L193.8,180.0L192.0,181.2L190.3,183.0L189.0,185.1L188.6,186.0L187.1,189.0L186.0,190.5L184.7,192.0L183.0,193.6L180.5,195.0L180.0,195.3L177.0,197.0L175.5,198.0L174.0,199.6L172.1,201.0L171.0,202.6L168.0,201.3L165.0,202.7L164.0,204.0L162.0,206.7L161.9,207.0L160.0,210.0L159.0,211.0L157.5,213.0L156.0,214.7L155.0,216.0L153.0,218.3L152.5,219.0L150.0,221.9L149.9,222.0L147.0,224.2L144.0,224.6L141.2,222.0L141.0,221.7L138.7,219.0L138.0,218.0L135.0,218.3L134.8,219.0L133.9,222.0L133.3,225.0L132.9,228.0L132.8,231.0L133.0,234.0L133.4,237.0L133.7,240.0L133.8,243.0L134.8,246.0L135.0,246.3L138.0,248.8L138.3,249.0L141.0,250.3L144.0,251.2L147.0,252.0L147.0,252.0L148.9,255.0L148.5,258.0L147.5,261.0L147.0,263.4L146.9,264.0L147.0,264.4L148.0,267.0L150.0,269.1L151.2,270.0L153.0,271.3L155.4,273.0L156.0,273.4L159.0,275.9L159.1,276.0L162.0,277.2L162.7,276.0L163.6,273.0L165.0,270.6L165.4,270.0L168.0,268.3L171.0,267.6L174.0,268.1L177.0,269.8L177.3,270.0L180.0,272.3L181.0,273.0L183.0,275.2L185.0,276.0L186.0,276.6L189.0,277.1L192.0,277.3L195.0,278.6L195.3,279.0L197.0,282.0L198.0,283.2L199.7,285.0L201.0,285.8L204.0,287.8L204.2,288.0L207.0,290.5L207.4,291.0L210.0,293.5L210.5,294.0L213.0,297.0L213.0,297.0L216.0,299.6L219.0,299.2L220.9,297.0L222.0,294.0L222.0,294.0L223.6,291.0L224.8,288.0L225.0,287.2L225.7,285.0L225.4,282.0L225.0,281.1L224.2,279.0L223.3,276.0L223.7,273.0L224.7,270.0L225.0,269.1L225.4,267.0L225.5,264.0L225.4,261.0L225.1,258.0L225.0,257.2L224.7,255.0L224.3,252.0L224.0,249.0L224.1,246.0L224.5,243.0L224.3,240.0L222.5,237.0L222.0,236.6L219.6,234.0L219.0,233.0L218.5,231.0L218.7,228.0L219.0,226.0L219.3,225.0L220.5,222.0L221.8,219.0L222.0,218.4L225.0,218.6L225.3,219.0L228.0,221.1L229.7,222.0L231.0,222.6L234.0,222.8L235.5,222.0L237.0,221.4L240.0,219.1L240.2,219.0L243.0,216.8L244.3,216.0L246.0,215.0L249.0,214.4L252.0,214.8L255.0,215.2L258.0,215.6L261.0,216.0L261.2,216.0L264.0,216.4L267.0,216.9L270.0,217.6L273.0,218.8L273.3,219.0L276.0,220.8L277.6,222.0L279.0,222.9L282.0,224.7L282.5,225.0L285.0,226.4L288.0,227.9L288.3,228.0L291.0,230.4L291.7,231.0L291.8,234.0L292.0,237.0L293.2,240.0L294.0,241.1L295.4,243.0L297.0,244.8L298.3,246.0L300.0,247.7L301.6,249.0L303.0,250.6L304.6,252.0L306.0,254.0L306.9,255.0L308.2,258.0L309.0,261.0L309.0,261.0L310.2,264.0L312.0,266.7L312.2,267.0L315.0,269.8L315.2,270.0L318.0,272.0L319.1,273.0L321.0,274.2L323.5,276.0L324.0,276.4L327.0,278.6L327.4,279.0L330.0,282.0L330.0,282.0L331.4,285.0L332.2,288.0L332.5,291.0L332.8,294.0L333.0,297.0L333.0,297.1L333.4,300.0L334.2,303.0" stroke-width="1.00"/><path d="M91.5,0.0L91.5,3.0L91.5,6.0L91.5,9.0L91.5,12.0L91.5,15.0L91.8,18.0L92.5,21.0L93.0,22.6L93.5,24.0L94.4,27.0L94.9,30.0L95.0,33.0L94.7,36.0L94.0,39.0L93.0,41.7L92.9,42.0L91.5,45.0L90.6,48.0L90.0,49.4L89.3,51.0L88.2,54.0L87.6,57.0L87.3,60.0L87.2,63.0L87.1,66.0L87.0,68.9L87.0,69.0L86.8,72.0L86.2,75.0L84.0,77.6L81.0,77.8L78.0,77.3L75.0,76.0L73.8,75.0L72.0,72.6L71.7,72.0L70.6,69.0L69.3,66.0L69.0,65.4L68.0,63.0L67.0,60.0L66.5,57.0L66.4,54.0L66.4,51.0L66.4,48.0L66.4,45.0L66.6,42.0L67.1,39.0L67.8,36.0L68.4,33.0L68.8,30.0L69.0,27.1L69.0,27.0L69.2,24.0L69.4,21.0L69.7,18.0L70.0,15.0L70.3,12.0L70.5,9.0L70.5,6.0L70.5,3.0L70.5,0.0" stroke-width="1.00"/><path d="M141.0,151.6L142.2,153.0L144.0,155.1L144.8,156.0L146.4,159.0L147.0,161.3L147.7,162.0L150.0,163.9L153.0,164.6L156.0,164.9L159.0,164.2L160.4,162.0L159.0,160.3L156.1,159.0L156.0,159.0L153.0,156.0L153.0,155.9L152.1,153.0L152.1,150.0L152.3,147.0L151.5,144.0L150.0,141.0L150.0,140.9L147.0,138.9L144.0,139.9L142.9,141.0L141.0,143.5L140.8,144.0L140.0,147.0L140.2,150.0Z" stroke-width="1.00"/><path d="M225.0,198.1L226.2,201.0L226.0,204.0L225.4,207.0L225.0,208.2L222.5,210.0L222.0,210.4L221.8,210.0L220.8,207.0L220.5,204.0L221.0,201.0L222.0,199.2Z" stroke-width="1.00"/><path d="M234.0,290.1L234.2,291.0L237.0,293.3L239.7,291.0L238.2,288.0L237.0,286.8L234.0,287.3L233.6,288.0Z" stroke-width="1.00"/><path d="M174.0,288.2L174.3,288.0L174.0,287.0L173.8,288.0Z" stroke-width="1.00"/><path d="M210.1,303.0L210.0,302.8L207.5,300.0L207.0,299.5L204.0,298.3L201.0,297.9L198.0,297.9L195.0,297.6L192.0,298.2L190.4,300.0L189.0,301.7L188.0,303.0" stroke-width="1.00"/><path d="M240.1,303.0L243.0,302.2L246.0,301.0L248.1,300.0L249.0,299.5L252.0,297.5L252.7,297.0L255.0,294.2L255.2,294.0L255.2,291.0L255.0,290.7L253.2,288.0L252.0,286.7L250.6,285.0L249.0,283.0L248.3,282.0L246.7,279.0L246.0,277.3L245.4,276.0L243.7,273.0L243.0,271.9L240.9,270.0L240.0,269.2L237.0,267.4L236.5,267.0L234.0,264.2L233.9,264.0L233.3,261.0L233.6,258.0L234.0,256.5L236.3,255.0L237.0,254.7L238.5,255.0L240.0,255.4L243.0,257.3L243.9,258.0L246.0,259.7L248.5,261.0L249.0,261.2L252.0,261.1L255.0,261.2L258.0,261.7L261.0,262.4L264.0,263.2L267.0,264.0L267.0,264.0L270.0,264.6L273.0,265.0L276.0,265.3L279.0,265.7L282.0,266.3L284.1,267.0L285.0,267.2L288.0,268.3L291.0,269.8L291.4,270.0L294.0,271.4L296.7,273.0L297.0,273.2L300.0,275.0L301.8,276.0L303.0,276.7L306.0,278.4L307.1,279.0L309.0,280.1L312.0,281.8L312.3,282.0L315.0,283.6L316.8,285.0L318.0,286.0L319.8,288.0L321.0,289.8L321.6,291.0L322.7,294.0L323.4,297.0L323.1,300.0L321.8,303.0" stroke-width="1.00"/><path d="M0.0,48.5L3.0,48.5L6.0,48.5L9.0,48.6L12.0,48.6L15.0,48.7L18.0,48.8L21.0,48.9L24.0,49.0L27.0,49.1L30.0,48.7L31.5,48.0L32.6,45.0L31.8,42.0L30.4,39.0L30.0,38.4L27.0,37.4L24.0,37.5L21.0,37.5L18.0,37.6L15.0,37.7L12.0,37.7L9.0,37.7L6.0,37.8L3.0,37.8L0.0,37.8" stroke-width="1.00"/><path d="M103.9,0.0L103.9,3.0L103.9,6.0L103.9,9.0L103.9,12.0L104.0,15.0L104.0,18.0L103.6,21.0L102.1,24.0L102.0,24.2L101.0,27.0L100.5,30.0L100.4,33.0L100.7,36.0L101.1,39.0L101.5,42.0L101.7,45.0L101.0,48.0L99.0,50.7L98.8,51.0L96.0,53.9L95.9,54.0L93.4,57.0L93.0,57.8L92.1,60.0L91.6,63.0L91.4,66.0L91.4,69.0L91.4,72.0L91.5,75.0L92.4,78.0L93.0,79.4L93.6,81.0L94.2,84.0L94.6,87.0L95.1,90.0L95.4,93.0L94.4,96.0L93.0,96.7L90.0,96.4L89.0,96.0L87.0,94.6L84.6,93.0L84.0,92.3L81.0,90.9L79.1,90.0L78.0,89.5L75.0,87.9L73.8,87.0L72.0,85.3L71.1,84.0L69.6,81.0L69.0,80.3L67.3,78.0L66.0,75.7L65.7,75.0L64.3,72.0L63.0,69.4L62.7,69.0L60.0,66.4L59.1,66.0L57.0,65.0L54.2,63.0L54.0,62.8L52.5,60.0L51.7,57.0L51.5,54.0L51.7,51.0L52.0,48.0L52.3,45.0L52.6,42.0L53.3,39.0L54.0,37.3L54.7,36.0L56.9,33.0L57.0,32.9L58.4,30.0L59.6,27.0L60.0,25.4L60.2,24.0L60.7,21.0L61.1,18.0L61.5,15.0L61.9,12.0L62.1,9.0L62.2,6.0L62.2,3.0L62.3,0.0" stroke-width="1.00"/><path d="M170.7,303.0L170.1,300.0L169.4,297.0L168.4,294.0L168.0,293.3L166.9,291.0L165.0,288.4L164.6,288.0L162.0,286.4L159.0,285.5L157.4,285.0L156.0,284.6L153.0,283.5L150.0,282.5L148.4,282.0L147.0,281.4L144.0,280.6L141.7,279.0L141.3,276.0L141.3,273.0L141.0,270.5L140.9,270.0L139.9,267.0L138.4,264.0L138.0,263.4L135.0,261.2L134.7,261.0L132.0,258.9L131.0,258.0L129.0,255.5L128.6,255.0L127.0,252.0L126.2,249.0L126.0,246.7L125.4,246.0L124.3,243.0L123.0,241.0L122.9,243.0L122.6,246.0L121.2,249.0L120.0,250.0L117.2,252.0L117.0,252.1L114.0,253.2L111.0,254.9L110.9,255.0L108.1,258.0L108.0,258.1L105.9,261.0L105.0,262.7L103.6,264.0L102.0,265.7L99.0,265.8L96.0,265.9L93.0,266.1L90.0,266.2L87.0,266.1L84.0,264.6L83.2,264.0L81.0,262.9L78.0,261.6L76.3,261.0L75.0,260.3L72.8,258.0L73.3,255.0L74.6,252.0L75.0,251.3L76.4,249.0L78.0,246.7L78.7,246.0L81.0,243.8L83.1,243.0L84.0,242.7L87.0,242.2L90.0,241.8L93.0,241.1L95.4,240.0L96.0,239.7L99.0,237.9L100.7,237.0L102.0,236.2L105.0,235.2L106.8,234.0L108.0,233.3L110.3,231.0L111.0,230.4L113.2,228.0L114.0,227.2L116.5,225.0L117.0,224.5L120.0,222.2L120.2,222.0L121.5,219.0L121.9,216.0L122.1,213.0L122.6,210.0L123.0,208.6L123.5,207.0L125.0,204.0L126.0,202.3L127.6,201.0L129.0,200.0L132.0,199.8L135.0,199.9L138.0,199.5L140.5,198.0L141.0,197.2L141.9,195.0L141.7,192.0L141.0,189.0L141.0,189.0L140.4,186.0L140.3,183.0L140.8,180.0L141.0,179.3L141.5,177.0L142.0,174.0L142.2,171.0L141.9,168.0L141.3,165.0L141.0,164.3L139.8,162.0L138.0,159.8L137.1,159.0L135.0,157.0L134.0,156.0L132.0,153.0L132.0,153.0L130.7,150.0L129.3,147.0L129.0,146.6L126.0,144.3L125.6,144.0L123.0,142.0L122.1,141.0L120.0,138.8L119.2,138.0L117.2,135.0L117.0,134.4L115.8,132.0L115.0,129.0L114.8,126.0L115.0,123.0L115.5,120.0L115.8,117.0L116.1,114.0L116.7,111.0L117.0,110.3L120.0,109.9L122.0,111.0L123.0,111.5L126.0,112.5L129.0,112.5L131.4,111.0L132.0,110.7L134.9,108.0L135.0,107.9L138.0,106.6L141.0,108.0L141.0,108.0L142.6,111.0L142.7,114.0L142.6,117.0L142.6,120.0L143.0,123.0L144.0,125.6L144.2,126.0L147.0,128.3L149.0,129.0L150.0,129.4L153.0,131.0L154.6,132.0L156.0,133.5L158.7,135.0L159.0,135.2L159.2,135.0L161.1,132.0L162.0,130.0L162.3,129.0L163.2,126.0L164.3,123.0L165.0,121.4L165.8,120.0L167.7,117.0L168.0,116.6L171.0,114.9L174.0,116.5L174.7,117.0L177.0,119.1L177.7,120.0L179.2,123.0L179.7,126.0L179.5,129.0L179.0,132.0L178.0,135.0L177.0,137.0L176.3,138.0L174.0,141.0L174.0,141.0L171.0,143.8L170.7,144.0L169.2,147.0L169.4,150.0L169.2,153.0L169.2,156.0L169.4,159.0L169.8,162.0L170.4,165.0L171.0,166.9L174.0,167.6L175.4,165.0L177.0,162.2L177.1,162.0L178.9,159.0L180.0,158.0L183.0,158.5L183.7,159.0L186.0,160.6L188.9,162.0L189.0,162.0L192.0,162.9L195.0,162.5L195.6,162.0L198.0,160.6L199.6,159.0L201.0,158.0L203.3,156.0L204.0,155.5L207.0,153.7L208.5,153.0L210.0,152.4L213.0,151.8L216.0,151.5L219.0,151.3L222.0,151.0L225.0,150.2L225.4,150.0L228.0,149.1L231.0,148.0L234.0,147.2L236.5,147.0L237.0,147.0L237.1,147.0L240.0,147.7L243.0,148.9L246.0,149.9L247.6,150.0L249.0,150.1L249.4,150.0L252.0,149.3L255.0,147.8L256.2,147.0L258.0,145.7L260.1,144.0L261.0,143.1L262.9,141.0L264.0,139.5L264.9,138.0L266.2,135.0L267.0,133.0L267.4,132.0L268.5,129.0L269.8,126.0L270.0,125.7L271.5,123.0L273.0,120.8L273.6,120.0L276.0,117.1L276.1,117.0L278.3,114.0L279.0,112.8L280.1,111.0L281.4,108.0L282.0,106.7L283.0,105.0L285.0,102.1L285.2,102.0L288.0,99.7L290.5,99.0L291.0,98.8L294.0,98.7L297.0,98.6L300.0,97.9L303.0,96.7L304.4,96.0L306.0,95.0L309.0,93.1L309.2,93.0L312.0,90.9L313.3,90.0L315.0,88.5L317.2,87.0L318.0,86.5L321.0,84.9L322.3,84.0L324.0,82.5L325.3,81.0L326.7,78.0L327.0,77.2L328.1,75.0L330.0,73.9L333.0,72.8L335.1,72.0L336.0,71.7L339.0,70.4L341.5,69.0L342.0,68.7L345.0,66.8L346.8,66.0L348.0,65.3L351.0,64.6L354.0,64.4L357.0,64.4L360.0,64.4L363.0,64.5L366.0,64.8L369.0,65.4L371.5,66.0L372.0,66.1L375.0,67.0L378.0,68.0L381.0,69.0L381.1,69.0L384.0,70.0L387.0,71.0L390.0,71.9L390.3,72.0L393.0,73.0L396.0,74.0L399.0,74.8L399.6,75.0L402.0,75.7L405.0,76.4L408.0,76.9L411.0,77.0L414.0,76.9L417.0,76.4L420.0,75.8L423.0,75.4L426.0,75.4L429.0,76.0L432.0,76.9L435.0,78.0L435.1,78.0L438.0,79.5L440.2,81.0L441.0,81.5L444.0,84.0L444.0,84.0L446.9,87.0L447.0,87.1L449.4,90.0L450.0,90.7L451.8,93.0L453.0,94.5L454.2,96.0L456.0,98.3L456.5,99.0L458.9,102.0L459.0,102.1L461.5,105.0L462.0,105.5L464.4,108.0L465.0,108.6L467.7,111.0L468.0,111.3L471.0,113.6L471.7,114.0L474.0,115.6L476.9,117.0L477.0,117.1L480.0,117.6L483.0,117.3" stroke-width="1.00"/><path d="M267.0,236.3L268.0,237.0L270.0,238.5L271.4,240.0L273.0,242.0L273.6,243.0L275.4,246.0L275.5,249.0L273.0,251.3L271.1,252.0L270.0,252.3L267.0,252.6L264.0,252.6L262.0,252.0L261.0,251.7L258.0,249.1L257.9,249.0L256.9,246.0L257.2,243.0L258.0,240.4L258.2,240.0L260.2,237.0L261.0,236.1L264.0,235.3Z" stroke-width="1.00"/><path d="M257.8,303.0L258.0,302.9L261.0,300.3L261.2,300.0L263.5,297.0L264.0,295.9L264.7,294.0L264.9,291.0L264.5,288.0L264.0,285.4L263.9,285.0L263.9,282.0L264.0,281.9L267.0,280.2L270.0,279.8L273.0,279.8L276.0,279.9L279.0,280.2L282.0,280.5L285.0,281.0L288.0,281.8L288.8,282.0L291.0,282.6L294.0,283.7L296.8,285.0L297.0,285.1L300.0,286.7L302.0,288.0L303.0,288.8L305.7,291.0L306.0,291.4L308.0,294.0L307.5,297.0L306.0,298.1L303.4,300.0L303.0,300.2L300.0,302.2L298.9,303.0" stroke-width="1.90"/><path d="M0.0,72.6L3.0,72.6L6.0,72.6L9.0,72.7L12.0,72.8L15.0,72.8L18.0,72.9L21.0,73.0L24.0,73.2L27.0,73.3L30.0,73.6L33.0,74.6L34.1,75.0L36.0,75.6L39.0,76.5L42.0,77.1L45.0,77.5L48.0,78.0L48.2,78.0L51.0,79.6L52.2,81.0L52.6,84.0L53.3,87.0L54.0,87.9L57.0,89.2L60.0,89.8L60.5,90.0L63.0,91.1L65.5,93.0L66.0,93.5L68.7,96.0L69.0,96.2L72.0,98.0L74.3,99.0L75.0,99.2L78.0,100.0L81.0,100.7L84.0,101.4L87.0,101.9L88.5,102.0L90.0,102.1L93.0,102.3L96.0,102.5L99.0,102.8L102.0,105.0L102.0,105.1L103.0,108.0L104.4,111.0L105.0,112.3L105.8,114.0L106.7,117.0L106.9,120.0L106.5,123.0L105.6,126.0L105.0,127.8L104.3,129.0L102.7,132.0L102.0,133.6L99.0,134.4L96.0,134.2L94.7,135.0L93.0,136.7L92.5,138.0L91.7,141.0L91.0,144.0L90.4,147.0L90.2,150.0L90.7,153.0L92.6,156.0L93.0,156.3L93.3,156.0L96.0,153.3L96.2,153.0L97.9,150.0L99.0,147.9L102.0,147.0L102.0,147.0L102.0,147.0L103.2,150.0L105.0,153.0L105.0,153.1L108.0,154.4L111.0,153.5L111.7,153.0L114.0,151.9L117.0,152.0L117.9,153.0L120.0,155.5L120.3,156.0L123.0,158.5L124.1,159.0L126.0,159.8L129.0,161.2L130.1,162.0L132.0,163.6L133.4,165.0L135.0,167.8L135.1,168.0L135.2,171.0L135.0,171.9L134.4,174.0L132.7,177.0L132.0,178.0L130.1,180.0L129.0,181.4L127.5,183.0L126.0,185.8L125.9,186.0L124.4,189.0L123.0,191.5L122.7,192.0L121.0,195.0L120.0,196.8L119.2,198.0L117.8,201.0L117.0,203.5L116.8,204.0L115.8,207.0L115.2,210.0L114.7,213.0L114.2,216.0L114.0,216.4L112.7,219.0L111.0,221.2L110.3,222.0L108.0,224.0L106.6,225.0L105.0,226.0L102.0,227.2L99.7,228.0L99.0,228.3L96.0,229.1L93.0,229.3L90.0,228.4L87.1,228.0L87.0,228.0L87.0,228.0L84.0,228.7L81.0,230.4L80.3,231.0L78.0,232.9L76.9,234.0L75.0,236.0L74.1,237.0L72.0,239.4L71.4,240.0L69.1,243.0L69.0,243.1L67.3,246.0L66.0,248.6L65.8,249.0L64.5,252.0L63.5,255.0L63.0,257.0L62.7,258.0L62.1,261.0L61.7,264.0L62.1,267.0L63.0,267.9L66.0,268.4L69.0,268.3L72.0,268.4L75.0,269.8L75.3,270.0L77.4,273.0L78.0,273.8L80.0,276.0L81.0,276.8L84.0,278.3L87.0,278.8L87.7,279.0L90.0,279.4L93.0,280.0L96.0,280.4L99.0,280.7L102.0,280.6L105.0,279.8L106.8,279.0L108.0,278.1L110.5,276.0L111.0,275.4L114.0,273.3L114.4,273.0L117.0,270.7L118.0,270.0L120.0,268.8L123.0,268.8L124.9,270.0L126.0,270.8L129.0,272.7L129.4,273.0L129.1,276.0L129.0,276.1L126.9,279.0L126.0,280.0L124.4,282.0L123.0,284.0L122.2,285.0L121.7,288.0L123.0,289.6L125.1,291.0L126.0,291.3L129.0,291.6L132.0,291.5L135.0,291.2L136.0,291.0L138.0,290.7L141.0,290.0L144.0,289.4L147.0,289.1L150.0,289.6L153.0,290.3L155.4,291.0L156.0,291.3L159.0,293.0L160.2,294.0L162.0,296.2L162.4,297.0L163.7,300.0L164.7,303.0" stroke-width="1.90"/><path d="M111.7,0.0L111.7,3.0L111.7,6.0L111.8,9.0L111.8,12.0L111.8,15.0L111.9,18.0L112.0,21.0L112.8,24.0L114.0,26.0L114.8,27.0L117.0,29.5L117.4,30.0L119.6,33.0L120.0,33.7L121.5,36.0L123.0,38.5L123.4,39.0L125.4,42.0L125.9,45.0L123.2,48.0L123.0,48.1L120.0,49.8L117.8,51.0L117.0,51.4L114.0,52.2L111.0,52.7L108.0,53.2L106.0,54.0L105.0,54.3L102.0,56.4L101.3,57.0L99.0,59.5L98.6,60.0L97.4,63.0L96.9,66.0L96.9,69.0L96.9,72.0L96.9,75.0L97.4,78.0L98.0,81.0L98.6,84.0L99.0,85.7L99.4,87.0L100.7,90.0L101.8,93.0L102.0,93.9L103.1,96.0L104.8,99.0L105.0,99.2L105.2,99.0L108.0,97.4L109.9,96.0L111.0,95.6L114.0,95.1L117.0,95.6L117.8,96.0L120.0,97.2L122.9,99.0L123.0,99.1L126.0,100.9L129.0,101.2L132.0,100.6L135.0,100.1L138.0,100.0L141.0,100.2L144.0,99.6L145.3,99.0L147.0,98.0L150.0,96.0L150.1,96.0L153.0,95.6L156.0,95.6L159.0,95.8L159.6,96.0L159.0,96.4L157.7,99.0L156.6,102.0L156.0,105.0L156.1,108.0L156.0,111.0L156.0,111.0L155.8,114.0L156.0,114.8L159.0,114.2L159.2,114.0L162.0,112.1L162.9,111.0L165.0,108.9L165.9,108.0L168.0,105.9L169.3,105.0L171.0,103.9L174.0,103.6L177.0,104.2L180.0,104.7L181.5,105.0L183.0,105.6L186.0,108.0L186.0,108.0L187.5,111.0L188.8,114.0L189.0,114.4L190.5,117.0L190.7,120.0L189.5,123.0L189.0,124.0L188.2,126.0L187.2,129.0L186.5,132.0L186.0,133.8L185.6,135.0L184.7,138.0L184.0,141.0L183.9,144.0L184.9,147.0L186.0,148.6L187.1,150.0L189.0,151.6L191.9,153.0L192.0,153.0L195.0,153.4L196.6,153.0L198.0,152.7L201.0,151.6L204.0,150.4L204.9,150.0L207.0,149.2L210.0,148.1L213.0,147.3L214.2,147.0L216.0,146.6L219.0,146.0L222.0,145.7L225.0,145.1L228.0,144.1L228.4,144.0L231.0,142.9L234.0,141.8L237.0,141.0L240.0,141.1L243.0,142.0L246.0,143.1L249.0,143.7L252.0,143.1L255.0,141.4L255.5,141.0L258.0,138.5L258.4,138.0L260.4,135.0L261.0,133.9L261.9,132.0L263.4,129.0L264.0,127.8L264.9,126.0L266.7,123.0L267.0,122.6L268.9,120.0L270.0,118.7L271.5,117.0L273.0,115.3L274.1,114.0L276.0,111.2L276.1,111.0L277.5,108.0L278.4,105.0L279.0,102.0L279.0,101.8L279.8,99.0L281.8,96.0L282.0,95.8L285.0,93.3L285.4,93.0L288.0,91.3L291.0,90.2L292.1,90.0L294.0,89.6L297.0,89.3L300.0,88.9L303.0,87.5L303.5,87.0L303.0,86.8L300.0,86.0L297.2,84.0L297.0,83.8L295.5,81.0L294.7,78.0L294.0,77.1L291.6,75.0L291.0,74.6L288.7,72.0L289.5,69.0L291.0,68.4L294.0,68.4L296.4,69.0L297.0,69.3L300.0,71.0L302.6,72.0L303.0,72.1L303.9,72.0L306.0,71.7L309.0,70.1L310.6,69.0L312.0,67.1L313.0,66.0L315.0,64.0L316.1,63.0L318.0,61.7L320.3,60.0L321.0,59.6L324.0,58.8L327.0,59.7L327.2,60.0L327.8,63.0L329.4,66.0L330.0,66.3L333.0,67.0L336.0,66.4L336.7,66.0L339.0,64.1L340.2,63.0L342.0,61.0L343.1,60.0L345.0,58.7L348.0,57.3L349.1,57.0L351.0,56.6L354.0,56.4L357.0,56.6L360.0,56.9L363.0,56.8L366.0,56.9L366.4,57.0L369.0,57.4L372.0,58.0L375.0,58.7L378.0,59.6L379.3,60.0L381.0,60.4L384.0,61.3L387.0,62.3L388.9,63.0L390.0,63.4L393.0,64.4L396.0,65.4L397.8,66.0L399.0,66.4L402.0,67.2L405.0,67.9L408.0,68.4L411.0,68.7L414.0,68.7L417.0,68.6L420.0,68.3L423.0,68.3L426.0,68.6L429.0,68.9L432.0,68.4L435.0,67.2L438.0,67.1L441.0,68.7L441.5,69.0L444.0,71.1L444.9,72.0L446.9,75.0L447.0,75.1L448.7,78.0L450.0,80.2L450.4,81.0L452.5,84.0L453.0,84.6L454.9,87.0L456.0,88.4L457.5,90.0L459.0,91.8L460.3,93.0L462.0,95.0L463.4,96.0L465.0,97.6L467.6,99.0L468.0,99.3L468.4,99.0L468.5,96.0L468.0,94.4L467.5,93.0L466.3,90.0L465.1,87.0L465.0,86.7L463.9,84.0L463.4,81.0L465.0,79.7L468.0,79.2L471.0,79.3L474.0,79.7L477.0,80.6L477.8,81.0L480.0,81.7L483.0,82.8" stroke-width="1.90"/><path d="M378.0,42.6L381.0,43.2L384.0,42.7L385.7,42.0L386.1,39.0L384.0,37.6L381.0,37.3L378.0,38.7L377.7,39.0L377.2,42.0Z" stroke-width="1.90"/><path d="M154.8,303.0L153.0,301.1L151.5,300.0L150.0,298.9L147.0,297.5L144.0,297.1L141.0,297.6L138.0,298.5L135.0,299.1L132.0,299.8L131.4,300.0L129.0,300.9L126.0,301.6L123.0,301.7L120.0,301.0L117.3,300.0L117.0,299.9L114.0,297.6L113.4,297.0L111.0,294.6L110.6,294.0L108.1,291.0L108.0,290.9L105.7,288.0L105.0,287.4L102.0,286.2L99.0,285.9L96.0,285.9L93.0,286.0L90.0,286.1L87.0,286.1L84.0,286.0L81.0,285.7L78.0,285.3L77.0,285.0L75.0,284.3L72.0,283.0L69.1,282.0L69.0,281.9L66.0,280.8L63.0,280.2L60.0,279.9L57.0,279.3L56.4,279.0L54.0,277.7L52.0,276.0L51.0,274.5L50.1,273.0L49.8,270.0L50.2,267.0L51.0,264.0L51.0,263.9L51.6,261.0L51.6,258.0L51.1,255.0L51.0,254.1L50.6,252.0L51.0,250.7L51.5,249.0L53.8,246.0L54.0,245.9L57.0,243.6L57.7,243.0L60.0,241.4L61.5,240.0L63.0,238.7L64.7,237.0L66.0,235.7L67.6,234.0L69.0,232.3L70.1,231.0L72.0,228.3L72.3,228.0L74.3,225.0L75.0,224.1L76.7,222.0L78.0,220.5L79.4,219.0L81.0,217.4L82.4,216.0L84.0,214.3L85.3,213.0L87.0,211.0L87.9,210.0L90.0,207.1L90.1,207.0L92.1,204.0L92.8,201.0L93.0,199.3L93.2,198.0L93.3,195.0L93.4,192.0L93.7,189.0L94.4,186.0L95.4,183.0L96.0,180.8L96.3,180.0L96.7,177.0L96.2,174.0L96.0,173.8L93.0,171.3L92.7,171.0L90.0,169.8L87.0,168.0L86.9,168.0L84.0,166.4L81.0,165.1L80.7,165.0L78.0,163.8L75.0,163.0L72.0,162.3L70.9,162.0L69.0,160.9L67.1,159.0L66.8,156.0L68.2,153.0L69.0,152.2L71.2,150.0L72.0,149.4L75.0,147.2L75.3,147.0L78.0,145.1L79.2,144.0L81.0,142.6L82.2,141.0L84.0,138.7L84.3,138.0L85.4,135.0L86.7,132.0L87.0,131.4L88.3,129.0L90.0,126.8L90.8,126.0L93.0,123.9L93.9,123.0L95.1,120.0L95.0,117.0L94.3,114.0L93.0,111.7L92.1,111.0L90.0,110.1L87.0,109.5L84.0,108.8L81.7,108.0L81.0,107.8L78.0,107.7L75.0,107.9L74.3,108.0L72.0,108.6L69.0,108.8L66.0,108.5L63.0,108.3L60.0,108.4L57.0,108.5L54.0,108.7L51.0,109.2L48.0,110.6L47.6,111.0L45.5,114.0L45.0,115.0L44.5,117.0L43.9,120.0L43.1,123.0L42.0,125.2L41.6,126.0L39.0,129.0L39.0,129.0L36.0,131.0L33.3,132.0L33.0,132.1L30.0,132.7L27.0,133.2L24.0,133.7L21.0,134.1L18.0,134.5L15.0,134.8L12.8,135.0L12.0,135.1L9.0,135.3L6.0,135.4L3.0,135.5L0.0,135.6" stroke-width="1.00"/><path d="M0.0,83.2L3.0,83.2L6.0,83.2L9.0,83.2L12.0,83.2L15.0,83.2L18.0,83.2L21.0,83.2L24.0,83.2L27.0,83.2L30.0,83.2L33.0,83.7L33.7,84.0L36.0,86.3L36.4,87.0L37.0,90.0L38.0,93.0L39.0,96.0L39.0,96.0L39.0,96.1L38.5,99.0L36.0,100.8L33.0,101.6L30.1,102.0L30.0,102.0L27.0,102.4L24.0,102.7L21.0,103.1L18.0,103.4L15.0,103.8L12.0,104.0L9.0,104.3L6.0,104.5L3.0,104.6L0.0,104.7" stroke-width="1.00"/><path d="M132.5,0.0L132.5,3.0L132.5,6.0L132.6,9.0L132.6,12.0L132.7,15.0L132.8,18.0L132.9,21.0L133.2,24.0L133.9,27.0L134.9,30.0L135.0,30.2L136.3,33.0L138.0,34.9L139.2,36.0L141.0,37.1L144.0,38.6L144.8,39.0L147.0,40.3L149.7,42.0L150.0,42.4L152.0,45.0L151.7,48.0L150.0,49.8L148.2,51.0L147.0,51.4L144.0,52.3L141.0,53.3L139.0,54.0L138.0,54.3L135.0,55.2L132.0,56.1L129.2,57.0L129.0,57.1L126.0,57.9L123.0,59.0L120.9,60.0L120.0,60.6L117.0,62.3L114.9,63.0L114.0,63.2L111.0,63.2L109.6,63.0L108.0,62.8L107.3,63.0L105.0,64.4L104.5,66.0L104.4,69.0L104.6,72.0L104.4,75.0L103.7,78.0L103.2,81.0L104.2,84.0L105.0,84.9L108.0,86.7L108.7,87.0L111.0,87.6L114.0,88.2L117.0,88.8L120.0,89.5L121.7,90.0L123.0,90.4L126.0,91.2L129.0,91.4L132.0,91.7L135.0,92.2L138.0,92.6L141.0,92.5L144.0,90.5L144.7,90.0L147.0,88.5L150.0,87.2L150.8,87.0L153.0,86.2L156.0,85.2L159.0,84.0L159.1,84.0L162.0,82.1L164.8,81.0L165.0,80.7L168.0,79.6L171.0,80.9L171.1,81.0L174.0,83.7L174.1,84.0L174.6,87.0L174.4,90.0L174.1,93.0L176.5,96.0L177.0,96.2L180.0,96.9L183.0,97.5L186.0,97.8L189.0,98.1L192.0,98.8L192.5,99.0L195.0,100.9L195.8,102.0L196.4,105.0L197.6,108.0L198.0,108.7L199.5,111.0L201.0,113.7L201.1,114.0L201.5,117.0L201.0,118.5L200.3,120.0L198.0,122.7L197.7,123.0L195.0,125.5L194.6,126.0L192.8,129.0L192.0,131.3L191.8,132.0L191.2,135.0L190.9,138.0L191.1,141.0L192.0,143.7L192.2,144.0L195.0,145.8L198.0,146.1L201.0,145.9L204.0,145.4L207.0,144.7L209.1,144.0L210.0,143.6L213.0,142.4L216.0,141.4L217.3,141.0L219.0,140.4L222.0,139.7L225.0,139.4L228.0,138.5L229.2,138.0L231.0,137.3L234.0,136.3L237.0,135.4L240.0,135.0L243.0,135.0L246.0,135.1L248.7,135.0L249.0,135.0L252.0,134.2L254.6,132.0L255.0,131.7L257.0,129.0L258.0,127.8L259.2,126.0L261.0,123.7L261.5,123.0L263.8,120.0L264.0,119.8L266.5,117.0L267.0,116.4L269.3,114.0L270.0,113.2L271.8,111.0L273.0,109.0L273.5,108.0L273.8,105.0L273.5,102.0L273.6,99.0L275.1,96.0L276.0,94.9L277.8,93.0L279.0,91.8L280.8,90.0L282.0,88.4L283.2,87.0L284.7,84.0L285.0,82.7L285.5,81.0L285.2,78.0L285.0,77.6L284.0,75.0L283.0,72.0L282.9,69.0L284.1,66.0L285.0,64.7L288.0,63.4L291.0,63.2L293.2,63.0L294.0,62.9L297.0,61.5L299.2,60.0L300.0,59.4L303.0,57.7L304.7,57.0L306.0,56.5L309.0,55.4L311.8,54.0L312.0,53.9L315.0,51.6L315.8,51.0L318.0,48.8L319.0,48.0L321.0,46.4L324.0,45.6L327.0,47.1L328.4,48.0L330.0,48.6L333.0,49.0L336.0,48.9L339.0,49.2L342.0,50.0L345.0,50.8L348.0,49.9L351.0,48.3L351.8,48.0L354.0,47.0L357.0,45.5L357.8,45.0L360.0,43.8L362.6,42.0L363.0,41.8L366.0,39.6L366.6,39.0L369.0,36.4L369.3,36.0L369.3,33.0L369.0,32.6L366.0,30.1L365.8,30.0L363.0,28.7L360.0,28.1L357.0,27.6L354.7,27.0L354.0,26.8L351.0,24.7L350.3,24.0L348.9,21.0L349.5,18.0L350.5,15.0L351.0,13.2L351.3,12.0L352.0,9.0L352.5,6.0L352.8,3.0L352.9,0.0" stroke-width="1.00"/><path d="M389.0,0.0L389.0,3.0L388.9,6.0L388.8,9.0L388.6,12.0L388.4,15.0L388.1,18.0L387.6,21.0L387.2,24.0L387.4,27.0L389.0,30.0L390.0,31.1L391.7,33.0L393.0,34.2L395.1,36.0L396.0,36.8L399.0,38.9L399.3,39.0L402.0,40.6L405.0,40.9L408.0,39.9L409.1,39.0L411.0,38.1L414.0,36.7L417.0,36.2L420.0,37.0L423.0,38.8L423.3,39.0L426.0,41.5L426.9,42.0L429.0,43.4L432.0,43.3L435.0,42.2L435.5,42.0L438.0,40.8L440.8,39.0L441.0,38.5L441.6,36.0L441.1,33.0L441.0,32.2L440.7,30.0L441.0,29.3L444.0,28.9L447.0,29.9L447.2,30.0L450.0,30.8L453.0,32.0L454.4,33.0L456.0,34.3L457.6,36.0L459.0,38.2L459.6,39.0L460.8,42.0L461.1,45.0L461.2,48.0L461.6,51.0L462.0,52.6L462.4,54.0L463.9,57.0L465.0,58.8L466.1,60.0L468.0,61.7L471.0,62.8L472.9,63.0L474.0,63.1L477.0,63.3L480.0,63.3L483.0,63.3" stroke-width="1.00"/><path d="M282.0,290.0L284.8,291.0L285.0,291.3L286.1,294.0L285.0,295.8L284.0,297.0L282.0,298.1L279.0,298.4L276.7,297.0L276.0,295.9L275.5,294.0L275.7,291.0L276.0,290.6L279.0,289.5Z" stroke-width="1.00"/><path d="M0.0,143.4L3.0,143.4L6.0,143.4L9.0,143.4L12.0,143.3L15.0,143.3L18.0,143.3L21.0,143.2L24.0,143.1L27.0,143.1L30.0,143.1L33.0,143.3L36.0,143.9L36.3,144.0L39.0,145.0L42.0,146.9L42.1,147.0L44.0,150.0L44.6,153.0L44.8,156.0L44.8,159.0L44.8,162.0L45.0,163.2L45.3,165.0L46.5,168.0L48.0,170.1L49.2,171.0L51.0,171.9L54.0,172.1L57.0,172.1L60.0,172.1L63.0,172.1L66.0,172.4L69.0,172.7L72.0,172.8L75.0,172.9L78.0,173.3L80.3,174.0L81.0,174.3L84.0,176.8L84.2,177.0L85.2,180.0L85.3,183.0L84.8,186.0L84.1,189.0L84.0,189.6L83.5,192.0L83.4,195.0L83.2,198.0L82.7,201.0L81.8,204.0L81.0,205.5L80.1,207.0L78.0,209.6L77.6,210.0L75.0,212.1L73.4,213.0L72.0,213.9L69.0,215.6L68.4,216.0L66.0,217.8L64.8,219.0L63.0,221.1L62.3,222.0L60.0,224.9L59.9,225.0L57.0,226.9L54.0,227.7L52.5,228.0L51.0,228.3L48.0,228.8L45.0,229.5L42.0,230.2L39.5,231.0L39.0,231.3L36.0,233.5L35.5,234.0L34.7,237.0L34.9,240.0L35.4,243.0L35.9,246.0L36.0,247.7L36.1,249.0L36.1,252.0L37.0,255.0L38.4,258.0L39.0,259.5L39.7,261.0L39.6,264.0L39.0,265.9L38.7,267.0L37.8,270.0L37.6,273.0L39.0,275.8L39.1,276.0L41.4,279.0L42.0,279.8L43.9,282.0L45.0,282.8L48.0,284.5L49.0,285.0L51.0,285.9L54.0,287.4L55.4,288.0L57.0,288.6L60.0,289.4L63.0,290.2L65.9,291.0L66.0,291.0L69.0,291.7L72.0,291.9L75.0,291.8L78.0,291.5L81.0,291.3L84.0,291.4L87.0,291.4L90.0,291.1L91.0,291.0L93.0,290.8L96.0,290.6L99.0,290.7L99.6,291.0L102.0,292.5L103.2,294.0L105.0,297.0L105.0,297.0L106.5,300.0L107.8,303.0" stroke-width="1.00"/><path d="M145.8,0.0L145.8,3.0L145.9,6.0L146.0,9.0L146.1,12.0L146.3,15.0L146.5,18.0L146.7,21.0L147.0,23.5L147.1,24.0L147.9,27.0L149.7,30.0L150.0,30.3L153.0,32.7L153.5,33.0L156.0,34.2L159.0,35.0L161.8,36.0L162.0,36.1L164.4,39.0L165.0,40.0L166.1,42.0L168.0,44.4L169.5,45.0L171.0,45.8L173.3,45.0L174.0,44.8L177.0,43.3L180.0,42.6L183.0,43.6L185.7,45.0L186.0,45.2L189.0,48.0L189.0,48.0L190.2,51.0L190.7,54.0L190.6,57.0L190.2,60.0L190.0,63.0L190.2,66.0L190.8,69.0L192.0,71.2L192.8,72.0L195.0,73.6L196.7,75.0L198.0,77.1L198.4,78.0L198.2,81.0L198.0,81.7L197.0,84.0L195.3,87.0L195.4,90.0L198.0,91.2L200.4,93.0L201.0,93.4L203.4,96.0L204.0,96.8L205.2,99.0L205.8,102.0L206.3,105.0L206.9,108.0L207.0,108.8L207.2,111.0L207.4,114.0L207.5,117.0L207.0,119.3L206.9,120.0L205.8,123.0L204.3,126.0L204.0,127.2L203.3,129.0L203.7,132.0L204.0,132.5L207.0,134.6L210.0,134.6L213.0,134.1L216.0,133.7L219.0,133.4L222.0,133.1L225.0,132.9L228.0,132.6L231.0,132.0L231.2,132.0L234.0,131.4L237.0,130.8L240.0,130.4L243.0,130.1L246.0,129.4L247.0,129.0L249.0,128.0L251.8,126.0L252.0,125.8L254.9,123.0L255.0,122.9L257.7,120.0L258.0,119.7L260.3,117.0L261.0,116.1L262.8,114.0L264.0,112.5L265.2,111.0L266.9,108.0L267.0,107.4L267.4,105.0L267.7,102.0L268.4,99.0L269.7,96.0L270.0,95.5L271.6,93.0L273.0,91.4L274.3,90.0L276.0,87.9L276.6,87.0L278.0,84.0L279.0,81.0L279.0,80.7L279.3,78.0L279.0,75.9L278.9,75.0L278.3,72.0L278.0,69.0L278.5,66.0L279.0,63.0L279.0,63.0L279.4,60.0L281.0,57.0L282.0,56.3L285.0,56.0L288.0,56.0L291.0,55.7L294.0,54.5L294.8,54.0L297.0,52.6L299.7,51.0L300.0,50.7L303.0,48.3L303.5,48.0L304.9,45.0L304.9,42.0L304.9,39.0L305.7,36.0L306.0,35.6L309.0,33.2L309.7,33.0L312.0,32.6L314.2,33.0L315.0,34.0L315.6,36.0L318.0,37.9L321.0,37.6L324.0,36.3L324.9,36.0L327.0,33.9L328.2,33.0L327.0,32.0L324.1,30.0L324.0,30.0L321.0,28.9L319.5,27.0L319.5,24.0L320.0,21.0L320.6,18.0L321.0,15.9L321.2,15.0L321.7,12.0L322.2,9.0L322.5,6.0L322.7,3.0L322.8,0.0" stroke-width="1.00"/><path d="M396.7,0.0L396.7,3.0L396.7,6.0L396.7,9.0L396.6,12.0L396.6,15.0L396.6,18.0L396.1,21.0L396.0,21.5L395.5,24.0L395.6,27.0L396.0,27.6L397.8,30.0L399.0,31.0L402.0,32.4L405.0,32.5L408.0,31.8L411.0,30.7L413.4,30.0L414.0,29.9L417.0,29.7L420.0,29.6L423.0,29.3L426.0,28.2L427.4,27.0L429.0,25.7L430.8,24.0L432.0,22.6L433.3,21.0L435.0,18.1L435.1,18.0L436.2,15.0L436.1,12.0L435.8,9.0L435.5,6.0L435.4,3.0L435.3,0.0" stroke-width="1.00"/><path d="M0.0,150.9L3.0,150.9L6.0,151.0L9.0,151.1L12.0,151.2L15.0,151.4L18.0,151.7L21.0,151.9L24.0,152.3L27.0,153.0L27.0,153.0L30.0,155.5L30.4,156.0L31.6,159.0L32.4,162.0L33.0,163.5L33.5,165.0L35.0,168.0L36.0,169.5L36.7,171.0L38.8,174.0L39.0,174.2L41.8,177.0L42.0,177.2L45.0,179.2L46.9,180.0L48.0,180.4L51.0,181.0L54.0,181.1L57.0,180.9L60.0,180.7L63.0,180.8L66.0,181.8L68.0,183.0L69.0,185.2L69.3,186.0L69.0,188.5L69.0,189.0L68.2,192.0L67.5,195.0L67.2,198.0L66.7,201.0L66.0,202.7L65.5,204.0L63.8,207.0L63.0,208.1L61.8,210.0L60.0,212.4L59.6,213.0L57.2,216.0L57.0,216.2L54.2,219.0L54.0,219.2L51.0,221.2L49.4,222.0L48.0,222.5L45.0,223.1L42.0,223.3L39.0,223.0L36.0,222.5L34.1,222.0L33.0,221.6L30.0,221.0L27.0,221.6L26.5,222.0L24.0,224.4L23.6,225.0L22.2,228.0L21.4,231.0L21.1,234.0L21.5,237.0L22.4,240.0L23.6,243.0L24.0,244.0L24.9,246.0L25.9,249.0L26.7,252.0L27.0,252.6L28.1,255.0L29.5,258.0L30.0,259.7L30.4,261.0L30.3,264.0L30.0,264.9L29.2,267.0L27.7,270.0L27.0,271.6L26.4,273.0L26.6,276.0L27.0,276.8L28.3,279.0L30.0,281.6L30.2,282.0L31.7,285.0L32.9,288.0L33.0,288.3L34.6,291.0L36.0,292.8L38.9,294.0L39.0,294.0L42.0,294.5L45.0,294.8L48.0,295.1L51.0,295.5L54.0,296.1L57.0,296.8L57.9,297.0L60.0,297.4L63.0,297.9L66.0,298.2L69.0,298.3L72.0,298.1L75.0,297.6L78.0,297.1L80.9,297.0L81.0,297.0L81.1,297.0L84.0,297.5L87.0,297.6L90.0,297.4L93.0,297.2L96.0,297.3L99.0,298.9L99.8,300.0L101.5,303.0" stroke-width="1.00"/><path d="M153.9,0.0L153.9,3.0L154.0,6.0L154.1,9.0L154.3,12.0L154.5,15.0L154.8,18.0L155.7,21.0L156.0,21.5L158.1,24.0L159.0,24.6L162.0,25.7L165.0,26.4L166.8,27.0L168.0,27.4L171.0,28.9L173.1,30.0L174.0,30.6L177.0,32.2L179.2,33.0L180.0,33.3L183.0,34.5L186.0,35.7L187.0,36.0L189.0,36.7L192.0,37.7L195.0,39.0L195.1,39.0L197.4,42.0L198.0,43.4L198.7,45.0L199.4,48.0L199.6,51.0L199.0,54.0L198.0,56.6L197.9,57.0L196.9,60.0L196.5,63.0L197.5,66.0L198.0,66.6L200.2,69.0L201.0,69.7L203.5,72.0L204.0,72.6L206.1,75.0L207.0,76.7L207.8,78.0L208.9,81.0L209.5,84.0L209.9,87.0L210.0,87.4L211.0,90.0L212.6,93.0L213.0,94.0L213.7,96.0L214.2,99.0L214.3,102.0L214.2,105.0L213.9,108.0L213.6,111.0L213.7,114.0L214.3,117.0L215.1,120.0L216.0,121.9L216.8,123.0L219.0,124.7L222.0,125.8L222.9,126.0L225.0,126.3L228.0,126.3L231.0,126.0L231.2,126.0L234.0,125.5L237.0,124.8L240.0,123.8L242.2,123.0L243.0,122.3L245.8,120.0L246.0,119.7L248.6,117.0L249.0,116.7L252.0,115.1L253.7,114.0L255.0,113.3L257.1,111.0L258.0,110.0L259.0,108.0L260.4,105.0L261.0,103.5L261.5,102.0L262.7,99.0L264.0,96.4L264.2,96.0L265.3,93.0L266.5,90.0L267.0,88.9L268.1,87.0L270.0,84.4L270.3,84.0L272.2,81.0L273.0,78.8L273.2,78.0L273.2,75.0L273.0,73.6L272.7,72.0L272.2,69.0L272.2,66.0L272.9,63.0L273.0,62.6L273.4,60.0L273.8,57.0L274.5,54.0L276.0,51.6L276.8,51.0L279.0,49.6L282.0,48.4L282.9,48.0L285.0,45.9L285.9,45.0L287.4,42.0L288.0,40.4L289.6,39.0L291.0,38.2L293.4,36.0L294.0,35.4L295.2,33.0L295.4,30.0L294.0,28.0L293.1,27.0L291.0,25.1L290.1,24.0L289.1,21.0L289.1,18.0L289.3,15.0L289.5,12.0L289.6,9.0L289.7,6.0L289.8,3.0L289.8,0.0" stroke-width="1.00"/><path d="M302.9,0.0L302.9,3.0L302.8,6.0L302.6,9.0L302.4,12.0L302.1,15.0L301.8,18.0L301.5,21.0L302.1,24.0L303.0,24.6L306.0,25.1L309.0,24.3L309.4,24.0L311.0,21.0L311.5,18.0L312.0,15.6L312.1,15.0L312.4,12.0L312.7,9.0L312.9,6.0L313.0,3.0L313.1,0.0" stroke-width="1.00"/><path d="M402.4,0.0L402.4,3.0L402.5,6.0L402.5,9.0L402.6,12.0L402.8,15.0L402.9,18.0L403.0,21.0L403.8,24.0L405.0,25.0L408.0,25.3L411.0,25.1L414.0,24.8L417.0,24.6L419.7,24.0L420.0,23.9L423.0,22.5L424.8,21.0L426.0,19.1L426.6,18.0L426.9,15.0L426.5,12.0L426.2,9.0L426.0,6.8L425.9,6.0L425.8,3.0L425.7,0.0" stroke-width="1.00"/><path d="M33.9,303.0L33.0,302.7L30.0,300.1L29.9,300.0L28.1,297.0L27.0,294.6L26.7,294.0L25.4,291.0L24.3,288.0L24.0,287.3L22.7,285.0L21.0,283.1L19.6,282.0L18.0,280.4L16.5,279.0L15.5,276.0L15.9,273.0L17.9,270.0L18.0,269.9L20.2,267.0L21.0,265.6L21.8,264.0L21.9,261.0L21.0,258.9L20.6,258.0L18.5,255.0L18.0,254.3L16.2,252.0L15.0,250.2L13.9,249.0L12.0,246.8L10.5,246.0L9.0,245.1L6.0,245.0L3.0,244.9L0.0,244.8" stroke-width="1.00"/><path d="M57.6,303.0L57.0,302.9L54.0,302.6L51.0,302.5L48.0,302.6L45.0,302.9L44.6,303.0" stroke-width="1.00"/><path d="M162.2,0.0L162.2,3.0L162.3,6.0L162.5,9.0L162.7,12.0L163.0,15.0L163.9,18.0L165.0,19.1L167.8,21.0L168.0,21.1L171.0,22.2L174.0,23.5L175.0,24.0L177.0,25.0L180.0,26.3L181.1,27.0L183.0,27.8L186.0,29.6L186.6,30.0L189.0,31.1L192.0,32.1L195.0,32.6L198.0,32.7L199.7,33.0L201.0,33.3L202.8,36.0L204.0,38.0L204.5,39.0L206.7,42.0L207.0,42.4L209.0,45.0L210.0,48.0L209.0,51.0L207.0,53.6L206.7,54.0L204.6,57.0L204.0,58.6L203.4,60.0L203.5,63.0L204.0,63.8L205.5,66.0L207.0,67.4L209.1,69.0L210.0,69.7L213.0,71.7L213.3,72.0L215.9,75.0L216.0,75.2L217.8,78.0L219.0,80.2L219.4,81.0L220.3,84.0L220.7,87.0L221.2,90.0L221.6,93.0L222.0,95.2L222.2,96.0L222.8,99.0L223.3,102.0L223.4,105.0L223.4,108.0L223.8,111.0L225.0,113.7L225.3,114.0L228.0,115.8L231.0,116.0L234.0,114.4L234.4,114.0L237.0,111.8L237.9,111.0L240.0,109.5L243.0,108.1L243.2,108.0L246.0,107.0L249.0,106.0L251.1,105.0L252.0,104.5L254.7,102.0L255.0,101.6L256.6,99.0L257.9,96.0L258.0,95.7L258.7,93.0L259.2,90.0L259.8,87.0L261.0,84.7L261.4,84.0L263.4,81.0L264.0,80.1L265.2,78.0L266.2,75.0L266.1,72.0L265.7,69.0L265.3,66.0L265.4,63.0L266.3,60.0L267.0,58.5L267.7,57.0L268.8,54.0L269.7,51.0L270.0,50.4L271.5,48.0L273.0,46.2L274.3,45.0L276.0,42.0L275.4,39.0L273.9,36.0L273.0,34.6L271.9,33.0L270.1,30.0L270.0,29.8L268.9,27.0L268.1,24.0L267.3,21.0L267.0,19.8L266.6,18.0L266.2,15.0L266.1,12.0L266.0,9.0L265.9,6.0L265.8,3.0L265.8,0.0" stroke-width="1.00"/><path d="M202.9,0.0L202.9,3.0L203.1,6.0L203.6,9.0L204.0,10.7L204.1,12.0L204.3,15.0L204.3,18.0L204.1,21.0L204.0,22.5L203.7,21.0L201.7,18.0L201.0,17.5L200.3,15.0L199.9,12.0L199.6,9.0L199.4,6.0L199.2,3.0L199.2,0.0" stroke-width="1.00"/><path d="M410.4,0.0L410.4,3.0L410.4,6.0L410.5,9.0L410.7,12.0L410.8,15.0L411.0,16.3L412.4,18.0L414.0,18.2L414.7,18.0L415.3,15.0L415.0,12.0L414.8,9.0L414.6,6.0L414.5,3.0L414.5,0.0" stroke-width="1.00"/><path d="M30.0,184.9L32.6,186.0L33.0,186.2L36.0,188.2L37.0,189.0L39.0,191.0L40.0,192.0L41.8,195.0L42.0,195.8L42.8,198.0L43.2,201.0L43.0,204.0L42.0,206.2L41.4,207.0L39.0,208.0L36.0,208.1L33.0,207.8L30.0,207.2L29.2,207.0L27.0,206.3L24.0,204.9L22.5,204.0L21.0,202.4L19.9,201.0L19.1,198.0L19.2,195.0L20.1,192.0L21.0,189.7L21.4,189.0L23.5,186.0L24.0,185.6L27.0,184.6Z" stroke-width="1.00"/></g></svg>